<svg width="395" height="441" viewBox="0 0 395 441" fill="none" xmlns="http://www.w3.org/2000/svg">
<g clip-path="url(#clip0_9553_43611)">
<path d="M236.762 345.45L234.278 352.23L222.798 383.496C218.491 386.54 213.052 388.496 206.952 388.496C206.232 388.496 205.364 388.319 204.629 388.275C198.25 387.834 192.135 385.04 187.902 381.481L191.327 343.773L191.576 341.038C210.083 348.215 231.662 347.009 236.762 345.45Z" fill="#A0505A"/>
<path d="M236.762 345.45L231.897 358.686C217.05 360.701 195.295 348.553 191.341 343.773L191.591 341.038C210.083 348.215 231.661 347.009 236.762 345.45Z" fill="#73325A"/>
<path d="M223.034 383.452L219.521 420.262C218.889 429.968 211.451 437.395 202.631 437.395C202.234 437.395 201.837 437.38 201.426 437.351C192.077 436.645 185.036 427.836 185.698 417.688L187.829 385.158L188.049 381.672C189.931 383.437 192.121 384.952 194.547 386.128C197.589 387.599 200.985 388.555 204.616 388.834C205.351 388.893 206.071 388.922 206.791 388.922C208.878 388.922 210.922 388.687 212.862 388.246C212.921 388.231 212.994 388.217 213.053 388.202C216.684 387.349 220.006 385.775 222.769 383.643C222.872 383.584 222.96 383.525 223.034 383.452Z" fill="white" stroke="#FFCF2D" stroke-width="1.00272" stroke-miterlimit="10"/>
<path d="M219.665 385.687L217.181 415.144C216.652 423.35 210.361 429.63 202.893 429.63C202.555 429.63 202.217 429.615 201.879 429.586C193.986 428.983 188.018 421.541 188.576 412.953L190.531 383.643" stroke="#FFCF2D" stroke-width="1.00272" stroke-miterlimit="10"/>
<path d="M213.022 387.878C211.082 388.275 208.892 388.349 206.804 388.349C206.084 388.349 205.364 388.319 204.629 388.275C200.998 388.025 197.588 387.143 194.56 385.79L193.59 381.025C192.972 378.996 194.516 376.951 196.647 377.025L210.759 377.437C212.552 377.481 213.919 379.04 213.757 380.819L213.022 387.878Z" fill="#FFCF2D"/>
<path d="M212.875 387.731L211.096 410.1C210.788 414.438 206.672 417.644 202.791 416.938L202.482 416.909C196.955 415.894 192.722 410.129 193.442 403.952L194.559 385.775C197.602 387.128 200.998 388.011 204.628 388.261C205.363 388.319 206.084 388.334 206.804 388.334C208.891 388.349 210.935 388.128 212.875 387.731Z" fill="#FFCF2D"/>
<path d="M210.716 411.968L194.62 408.291C192.988 407.923 193.106 405.556 194.782 405.35L210.172 403.541C212.009 403.32 212.259 400.747 210.495 400.188L195.752 395.511C193.503 394.791 193.679 391.555 196.002 391.085L212.891 388.158C212.891 388.158 200.279 389.261 194.576 386.114" stroke="white" stroke-width="1.00272" stroke-miterlimit="10" stroke-linecap="round" stroke-linejoin="round"/>
<path d="M267.131 262.726L236.762 345.45C231.661 347.009 207.598 349.068 184.109 338.17L202.586 252.652C204.306 239.71 215.33 230.033 228.398 230.033H241.98C259.046 230.019 271.511 246.196 267.131 262.726Z" fill="#FE5244"/>
<path d="M240.288 336.626C235.187 338.185 209.067 340.097 185.577 329.199" stroke="white" stroke-width="1.20326" stroke-miterlimit="10" stroke-linecap="round"/>
<path d="M277.252 347.083L274.194 352.509L254.629 386.761C247.089 389.746 238.195 390.849 230.228 389.173L229.229 388.893C225.289 388.07 221.262 385.864 218.41 383.393L232.683 345.23C232.683 345.23 232.698 345.23 232.713 345.23C237.637 346.862 254.571 351.451 277.252 347.083Z" fill="#A0505A"/>
<path d="M277.255 347.083L270.802 358.451C245.96 362.422 231.878 347.465 231.878 347.465L232.701 345.245C237.64 346.862 254.573 351.451 277.255 347.083Z" fill="#73325A"/>
<path d="M319.117 275.844L285.235 345.494C256.556 352.671 237.594 346.862 232.699 345.244L268.154 250.373C270.579 244.622 274.607 239.872 279.59 236.563C284.573 233.254 290.512 231.387 296.744 231.387C320.351 231.387 330.523 255.152 319.117 275.844Z" fill="#FE5244"/>
<path d="M289.043 337.994C260.365 345.171 240.815 339.362 235.92 337.744" stroke="white" stroke-width="1.20326" stroke-miterlimit="10" stroke-linecap="round"/>
<path d="M268.155 250.373L216.046 390.908" stroke="white" stroke-width="1.20326" stroke-miterlimit="10"/>
<path d="M254.336 386.864L253.189 389.879L240.195 423.895C236.476 435.557 224.246 442.484 213.501 439.822L212.913 439.631C205.372 437.763 200.58 428.675 203.535 420.645L218.381 384.349L218.69 383.599C220.557 385.276 222.732 386.658 225.158 387.658C226.451 388.188 227.818 388.614 229.244 388.923L230.244 389.202C234.462 390.085 238.813 390.247 243.105 389.747C246.957 389.276 250.749 388.305 254.336 386.864Z" fill="white" stroke="#FFCF2D" stroke-width="1.00272" stroke-miterlimit="10"/>
<path d="M250.132 388.438L238.74 418.557C235.624 428.322 225.379 434.131 216.383 431.896L215.897 431.734C209.577 430.16 205.564 422.557 208.033 415.821L220.616 385.261" stroke="#FFCF2D" stroke-width="1.00272" stroke-miterlimit="10" stroke-linecap="round"/>
<path d="M245.766 385.187L243.091 389.717C238.813 390.217 234.462 390.055 230.229 389.173L229.229 388.894C227.804 388.599 226.437 388.173 225.143 387.629L226.201 380.276C226.451 378.511 228.156 377.32 229.906 377.687L243.723 380.584C245.81 381.011 246.854 383.364 245.766 385.187Z" fill="#FFCF2D"/>
<path d="M243.09 389.717L243.016 389.835L236.108 408.1C234.211 414.027 228.008 417.542 222.54 416.189L222.246 416.086C218.41 415.13 215.969 410.512 217.483 406.438L225.112 387.908L225.157 387.629C226.45 388.158 227.817 388.584 229.243 388.893L230.242 389.173C234.461 390.07 238.812 390.217 243.09 389.717Z" fill="#FFCF2D"/>
<path d="M217.045 409.689L232.92 411.409C234.875 411.615 235.698 408.968 233.964 408.041L221.601 401.438C219.911 400.541 220.617 397.982 222.528 398.07L238.138 398.776C240.24 398.879 241.005 396.056 239.152 395.07L225.144 387.599C225.144 387.599 232.361 390.997 243.048 389.673" stroke="white" stroke-width="1.00272" stroke-miterlimit="10" stroke-linecap="round" stroke-linejoin="round"/>
<path d="M78.7678 80.428C100.829 80.428 118.712 62.5355 118.712 40.464C118.712 18.3925 100.829 0.5 78.7678 0.5C56.707 0.5 38.8232 18.3925 38.8232 40.464C38.8232 62.5355 56.707 80.428 78.7678 80.428Z" fill="#D0F0E4"/>
<path d="M65.3861 80.4334C48.6856 74.8404 36.6492 59.0586 36.6492 40.464" stroke="#FFCF2D" stroke-width="0.517324" stroke-miterlimit="10"/>
<path d="M78.7657 66.2771C93.0152 66.2771 104.567 54.72 104.567 40.4636C104.567 26.2072 93.0152 14.6501 78.7657 14.6501C64.5163 14.6501 52.9648 26.2072 52.9648 40.4636C52.9648 54.72 64.5163 66.2771 78.7657 66.2771Z" stroke="white" stroke-width="0.739034" stroke-miterlimit="10" stroke-linecap="round" stroke-dasharray="2.22 2.22"/>
<path d="M78.7644 14.6559V18.9536" stroke="white" stroke-width="1.10855" stroke-miterlimit="10" stroke-linecap="round"/>
<path d="M78.7644 61.9741V66.2773" stroke="white" stroke-width="1.10855" stroke-miterlimit="10" stroke-linecap="round"/>
<path d="M60.5208 22.2107L63.5591 25.2565" stroke="white" stroke-width="1.10855" stroke-miterlimit="10" stroke-linecap="round"/>
<path d="M93.9636 55.6765L97.002 58.7169" stroke="white" stroke-width="1.10855" stroke-miterlimit="10" stroke-linecap="round"/>
<path d="M52.9648 40.4639H57.2659" stroke="white" stroke-width="1.10855" stroke-miterlimit="10" stroke-linecap="round"/>
<path d="M100.266 40.4639H104.562" stroke="white" stroke-width="1.10855" stroke-miterlimit="10" stroke-linecap="round"/>
<path d="M60.5208 58.7171L63.5591 55.6768" stroke="white" stroke-width="1.10855" stroke-miterlimit="10" stroke-linecap="round"/>
<path d="M93.9636 25.2565L97.002 22.2107" stroke="white" stroke-width="1.10855" stroke-miterlimit="10" stroke-linecap="round"/>
<path d="M78.7634 67.9034C75.0636 67.9034 71.4722 67.1772 68.0866 65.7464C64.8202 64.3644 61.8896 62.3863 59.3707 59.8662C56.8519 57.3461 54.8747 54.4141 53.4933 51.1461C52.0633 47.7642 51.3374 44.1711 51.3374 40.4641C51.3374 32.8604 54.2842 25.88 59.5874 21.062L61.7704 23.4683C59.5116 25.5223 57.8486 27.7768 56.5593 30.8009C55.2647 33.8413 54.5822 37.1798 54.5822 40.4586C54.5822 43.7267 55.2214 46.8917 56.4835 49.8725C57.7023 52.7503 59.4466 55.3408 61.6675 57.5629C63.8885 59.7849 66.4723 61.53 69.3542 62.744C72.3335 64.0067 75.497 64.6462 78.7634 64.6462C82.0298 64.6462 85.1933 64.0067 88.1726 62.744C91.049 61.5246 93.6383 59.7795 95.8593 57.5629C98.0802 55.3408 99.8245 52.7557 101.043 49.8725C102.305 46.8917 102.945 43.7267 102.945 40.4586C102.945 37.2069 102.284 34.0473 100.978 31.0611C99.7215 28.1887 97.9231 25.5981 95.6372 23.3707C93.3566 21.1487 90.7132 19.3981 87.7772 18.1733C84.7491 16.9106 82.0406 16.3794 78.7742 16.3794V13.1277C82.474 13.1277 85.605 13.7455 89.0285 15.1709C92.3437 16.5529 95.3284 18.5256 97.9069 21.0403C100.496 23.5658 102.533 26.4978 103.958 29.755C105.442 33.153 106.2 36.7516 106.2 40.4532C106.2 44.1548 105.474 47.748 104.044 51.1352C102.663 54.4032 100.686 57.3352 98.1669 59.8553C95.648 62.3754 92.7174 64.3536 89.451 65.7356C86.0546 67.1772 82.4632 67.9034 78.7634 67.9034Z" fill="#D0F0E4" stroke="white" stroke-width="1.10855" stroke-miterlimit="10" stroke-linecap="round" stroke-linejoin="round"/>
<path d="M65.2456 26.6818L82.2711 44.1545" stroke="#FE5244" stroke-width="0.517324" stroke-miterlimit="10" stroke-linecap="round"/>
<path d="M78.9494 41.9925C79.6942 41.9925 80.298 41.3884 80.298 40.6431C80.298 39.8978 79.6942 39.2936 78.9494 39.2936C78.2046 39.2936 77.6008 39.8978 77.6008 40.6431C77.6008 41.3884 78.2046 41.9925 78.9494 41.9925Z" fill="#D0F0E4" stroke="white" stroke-width="1.10855" stroke-miterlimit="10" stroke-linecap="round"/>
<path d="M86.3062 11.9298L86.5499 10.1901C86.6691 9.38798 87.4762 8.87854 88.2508 9.117L89.9517 9.63186C90.7264 9.8649 91.1164 10.7375 90.7697 11.4745L89.9463 13.1329" stroke="white" stroke-width="1.10855" stroke-miterlimit="10" stroke-linecap="round"/>
<path d="M167.456 440.366V248.001H341.493V440.366" stroke="#66B0F0" stroke-width="1.22149" stroke-miterlimit="10"/>
<path d="M347.656 254.436H161.294C157.086 254.436 153.668 251.017 153.668 246.807V217.739C153.668 213.529 157.086 210.11 161.294 210.11H347.656C351.864 210.11 355.281 213.529 355.281 217.739V246.807C355.281 251.017 351.864 254.436 347.656 254.436Z" fill="white" stroke="#66B0F0" stroke-width="1.22149" stroke-miterlimit="10"/>
<path d="M348.103 249.211H160.846C156.638 249.211 153.22 245.792 153.22 241.582V212.514C153.22 208.304 156.638 204.885 160.846 204.885H348.103C352.311 204.885 355.728 208.304 355.728 212.514V241.582C355.728 245.792 352.311 249.211 348.103 249.211Z" fill="#66B0F0"/>
<path d="M345.473 365.585V342.802C345.473 335.039 351.77 328.739 359.53 328.739C367.289 328.739 373.586 335.039 373.586 342.802V365.585" stroke="#FFCF2D" stroke-width="1.22149" stroke-miterlimit="10"/>
<path d="M331.581 440.5H383.943C390.046 440.5 395 435.543 395 429.437V356.463C395 350.356 390.046 345.4 383.943 345.4H331.581C325.478 345.4 320.524 350.356 320.524 356.463V429.437C320.524 435.558 325.478 440.5 331.581 440.5Z" fill="#3FB1B5"/>
<path d="M394.986 362.345C394.986 355.358 389.316 349.685 382.332 349.685H341.535C334.552 349.685 328.881 355.358 328.881 362.345V412.776" stroke="white" stroke-width="1.22149" stroke-miterlimit="10"/>
<path d="M384.107 440.5H348.399C342.385 440.5 337.521 435.633 337.521 429.617V364.629C337.521 358.612 342.385 353.746 348.399 353.746H384.107C390.121 353.746 394.986 358.612 394.986 364.629V429.617C394.986 435.633 390.121 440.5 384.107 440.5Z" fill="white" stroke="#FFCF2D" stroke-width="1.22149" stroke-miterlimit="10"/>
<path d="M353.337 370.705V347.923C353.337 340.16 359.634 333.86 367.394 333.86C375.153 333.86 381.45 340.16 381.45 347.923V370.705" stroke="#FFCF2D" stroke-width="1.22149" stroke-miterlimit="10"/>
<path d="M383.988 431.946H348.862C346.011 431.946 343.698 429.632 343.698 426.78V399.922C343.698 397.071 346.011 394.757 348.862 394.757H383.988C386.838 394.757 389.151 397.071 389.151 399.922V426.78C389.166 429.632 386.853 431.946 383.988 431.946Z" fill="#FFCF2D"/>
<path d="M331.118 412.776H326.701" stroke="#FFCF2D" stroke-width="1.22149" stroke-miterlimit="10"/>
<path d="M321.211 366.062C321.211 387.829 297.425 420.121 305.617 430.468C313.436 440.336 321.211 430.453 321.211 430.453V366.062Z" fill="white" stroke="#3FB1B5" stroke-width="1.22149" stroke-miterlimit="10"/>
<path d="M346.505 404.729H385.974" stroke="white" stroke-width="1.01791" stroke-miterlimit="10" stroke-linecap="round"/>
<path d="M356.174 370.257H350.503V372.974H356.174V370.257Z" stroke="#FFCF2D" stroke-width="1.22149" stroke-miterlimit="10"/>
<path d="M384.183 370.257H378.512V372.974H384.183V370.257Z" stroke="#FFCF2D" stroke-width="1.22149" stroke-miterlimit="10"/>
<path d="M346.504 406.551V404.729" stroke="white" stroke-width="1.01791" stroke-miterlimit="10" stroke-linecap="round"/>
<path d="M350.085 406.551V404.729" stroke="white" stroke-width="1.01791" stroke-miterlimit="10" stroke-linecap="round"/>
<path d="M353.68 406.551V404.729" stroke="white" stroke-width="1.01791" stroke-miterlimit="10" stroke-linecap="round"/>
<path d="M357.262 406.551V404.729" stroke="white" stroke-width="1.01791" stroke-miterlimit="10" stroke-linecap="round"/>
<path d="M360.86 406.551V404.729" stroke="white" stroke-width="1.01791" stroke-miterlimit="10" stroke-linecap="round"/>
<path d="M364.44 406.551V404.729" stroke="white" stroke-width="1.01791" stroke-miterlimit="10" stroke-linecap="round"/>
<path d="M368.198 406.551V404.729" stroke="white" stroke-width="1.01791" stroke-miterlimit="10" stroke-linecap="round"/>
<path d="M371.797 406.551V404.729" stroke="white" stroke-width="1.01791" stroke-miterlimit="10" stroke-linecap="round"/>
<path d="M375.215 406.551V404.729" stroke="white" stroke-width="1.01791" stroke-miterlimit="10" stroke-linecap="round"/>
<path d="M378.793 406.551V404.729" stroke="white" stroke-width="1.01791" stroke-miterlimit="10" stroke-linecap="round"/>
<path d="M382.393 406.551V404.729" stroke="white" stroke-width="1.01791" stroke-miterlimit="10" stroke-linecap="round"/>
<path d="M385.974 406.551V404.729" stroke="white" stroke-width="1.01791" stroke-miterlimit="10" stroke-linecap="round"/>
<path d="M350.667 412.776C349.697 412.776 348.966 411.925 349.086 410.97L349.877 404.714H351.458L352.249 410.97C352.383 411.925 351.637 412.776 350.667 412.776Z" fill="white" stroke="#3FB1B5" stroke-width="1.22149" stroke-miterlimit="10"/>
<path d="M293.415 204.87H226.639V240.208H293.415V204.87Z" fill="white"/>
<path d="M285.593 232.669C286.359 232.669 286.98 232.047 286.98 231.28C286.98 230.513 286.359 229.892 285.593 229.892C284.827 229.892 284.205 230.513 284.205 231.28C284.205 232.047 284.827 232.669 285.593 232.669Z" fill="#FE5244" stroke="#FE5244" stroke-width="1.01791" stroke-miterlimit="10"/>
<path d="M280.463 232.669C281.229 232.669 281.85 232.047 281.85 231.28C281.85 230.513 281.229 229.892 280.463 229.892C279.697 229.892 279.075 230.513 279.075 231.28C279.075 232.047 279.697 232.669 280.463 232.669Z" fill="white" stroke="#FE5244" stroke-width="1.01791" stroke-miterlimit="10"/>
<path d="M275.343 232.669C276.109 232.669 276.731 232.047 276.731 231.28C276.731 230.513 276.109 229.892 275.343 229.892C274.577 229.892 273.956 230.513 273.956 231.28C273.956 232.047 274.577 232.669 275.343 232.669Z" fill="white" stroke="#FE5244" stroke-width="1.01791" stroke-miterlimit="10"/>
<path d="M285.593 227.488C286.359 227.488 286.98 226.867 286.98 226.1C286.98 225.333 286.359 224.711 285.593 224.711C284.827 224.711 284.205 225.333 284.205 226.1C284.205 226.867 284.827 227.488 285.593 227.488Z" fill="#FE5244" stroke="#FE5244" stroke-width="1.01791" stroke-miterlimit="10"/>
<path d="M280.463 227.488C281.229 227.488 281.85 226.867 281.85 226.1C281.85 225.333 281.229 224.711 280.463 224.711C279.697 224.711 279.075 225.333 279.075 226.1C279.075 226.867 279.697 227.488 280.463 227.488Z" fill="white" stroke="#FE5244" stroke-width="1.01791" stroke-miterlimit="10"/>
<path d="M275.343 227.488C276.109 227.488 276.731 226.867 276.731 226.1C276.731 225.333 276.109 224.711 275.343 224.711C274.577 224.711 273.956 225.333 273.956 226.1C273.956 226.867 274.577 227.488 275.343 227.488Z" fill="white" stroke="#FE5244" stroke-width="1.01791" stroke-miterlimit="10"/>
<path d="M285.593 217.157C286.359 217.157 286.98 216.535 286.98 215.769C286.98 215.002 286.359 214.38 285.593 214.38C284.827 214.38 284.205 215.002 284.205 215.769C284.205 216.535 284.827 217.157 285.593 217.157Z" fill="white" stroke="#FE5244" stroke-width="1.01791" stroke-miterlimit="10"/>
<path d="M280.463 217.157C281.229 217.157 281.85 216.535 281.85 215.769C281.85 215.002 281.229 214.38 280.463 214.38C279.697 214.38 279.075 215.002 279.075 215.769C279.075 216.535 279.697 217.157 280.463 217.157Z" fill="#FE5244" stroke="#FE5244" stroke-width="1.01791" stroke-miterlimit="10"/>
<path d="M275.343 217.157C276.109 217.157 276.731 216.535 276.731 215.769C276.731 215.002 276.109 214.38 275.343 214.38C274.577 214.38 273.956 215.002 273.956 215.769C273.956 216.535 274.577 217.157 275.343 217.157Z" fill="white" stroke="#FE5244" stroke-width="1.01791" stroke-miterlimit="10"/>
<path d="M285.593 222.323C286.359 222.323 286.98 221.701 286.98 220.935C286.98 220.168 286.359 219.546 285.593 219.546C284.827 219.546 284.205 220.168 284.205 220.935C284.205 221.701 284.827 222.323 285.593 222.323Z" fill="white" stroke="#FE5244" stroke-width="1.01791" stroke-miterlimit="10"/>
<path d="M280.463 222.323C281.229 222.323 281.85 221.701 281.85 220.935C281.85 220.168 281.229 219.546 280.463 219.546C279.697 219.546 279.075 220.168 279.075 220.935C279.075 221.701 279.697 222.323 280.463 222.323Z" fill="white" stroke="#FE5244" stroke-width="1.01791" stroke-miterlimit="10"/>
<path d="M275.343 222.323C276.109 222.323 276.731 221.701 276.731 220.935C276.731 220.168 276.109 219.546 275.343 219.546C274.577 219.546 273.956 220.168 273.956 220.935C273.956 221.701 274.577 222.323 275.343 222.323Z" fill="#FE5244" stroke="#FE5244" stroke-width="1.01791" stroke-miterlimit="10"/>
<path d="M245.158 222.323C245.924 222.323 246.546 221.701 246.546 220.934C246.546 220.167 245.924 219.546 245.158 219.546C244.392 219.546 243.771 220.167 243.771 220.934C243.771 221.701 244.392 222.323 245.158 222.323Z" fill="#FE5244" stroke="#FE5244" stroke-width="1.01791" stroke-miterlimit="10"/>
<path d="M240.024 222.323C240.79 222.323 241.411 221.701 241.411 220.934C241.411 220.167 240.79 219.546 240.024 219.546C239.257 219.546 238.636 220.167 238.636 220.934C238.636 221.701 239.257 222.323 240.024 222.323Z" fill="white" stroke="#FE5244" stroke-width="1.01791" stroke-miterlimit="10"/>
<path d="M234.905 211.991C235.672 211.991 236.293 211.37 236.293 210.603C236.293 209.836 235.672 209.214 234.905 209.214C234.139 209.214 233.518 209.836 233.518 210.603C233.518 211.37 234.139 211.991 234.905 211.991Z" fill="white" stroke="#FE5244" stroke-width="1.01791" stroke-miterlimit="10"/>
<path d="M245.155 217.157C245.921 217.157 246.543 216.535 246.543 215.768C246.543 215.001 245.921 214.38 245.155 214.38C244.389 214.38 243.768 215.001 243.768 215.768C243.768 216.535 244.389 217.157 245.155 217.157Z" fill="white" stroke="#FE5244" stroke-width="1.01791" stroke-miterlimit="10"/>
<path d="M240.025 217.157C240.791 217.157 241.413 216.535 241.413 215.768C241.413 215.001 240.791 214.38 240.025 214.38C239.259 214.38 238.638 215.001 238.638 215.768C238.638 216.535 239.259 217.157 240.025 217.157Z" fill="white" stroke="#FE5244" stroke-width="1.01791" stroke-miterlimit="10"/>
<path d="M234.905 217.157C235.672 217.157 236.293 216.535 236.293 215.768C236.293 215.001 235.672 214.38 234.905 214.38C234.139 214.38 233.518 215.001 233.518 215.768C233.518 216.535 234.139 217.157 234.905 217.157Z" fill="#FE5244" stroke="#FE5244" stroke-width="1.01791" stroke-miterlimit="10"/>
<path d="M264.557 227.488C265.323 227.488 265.944 226.867 265.944 226.1C265.944 225.333 265.323 224.712 264.557 224.712C263.79 224.712 263.169 225.333 263.169 226.1C263.169 226.867 263.79 227.488 264.557 227.488Z" fill="white" stroke="#FE5244" stroke-width="1.01791" stroke-miterlimit="10"/>
<path d="M259.425 227.488C260.192 227.488 260.813 226.867 260.813 226.1C260.813 225.333 260.192 224.712 259.425 224.712C258.659 224.712 258.038 225.333 258.038 226.1C258.038 226.867 258.659 227.488 259.425 227.488Z" fill="white" stroke="#FE5244" stroke-width="1.01791" stroke-miterlimit="10"/>
<path d="M254.305 227.488C255.072 227.488 255.693 226.867 255.693 226.1C255.693 225.333 255.072 224.712 254.305 224.712C253.539 224.712 252.918 225.333 252.918 226.1C252.918 226.867 253.539 227.488 254.305 227.488Z" fill="#FE5244" stroke="#FE5244" stroke-width="1.01791" stroke-miterlimit="10"/>
<path d="M264.557 217.157C265.323 217.157 265.944 216.535 265.944 215.769C265.944 215.002 265.323 214.38 264.557 214.38C263.79 214.38 263.169 215.002 263.169 215.769C263.169 216.535 263.79 217.157 264.557 217.157Z" fill="#FE5244" stroke="#FE5244" stroke-width="1.01791" stroke-miterlimit="10"/>
<path d="M259.425 217.157C260.192 217.157 260.813 216.535 260.813 215.769C260.813 215.002 260.192 214.38 259.425 214.38C258.659 214.38 258.038 215.002 258.038 215.769C258.038 216.535 258.659 217.157 259.425 217.157Z" fill="white" stroke="#FE5244" stroke-width="1.01791" stroke-miterlimit="10"/>
<path d="M254.305 217.157C255.072 217.157 255.693 216.535 255.693 215.769C255.693 215.002 255.072 214.38 254.305 214.38C253.539 214.38 252.918 215.002 252.918 215.769C252.918 216.535 253.539 217.157 254.305 217.157Z" fill="white" stroke="#FE5244" stroke-width="1.01791" stroke-miterlimit="10"/>
<path d="M264.557 222.323C265.323 222.323 265.944 221.702 265.944 220.935C265.944 220.168 265.323 219.546 264.557 219.546C263.79 219.546 263.169 220.168 263.169 220.935C263.169 221.702 263.79 222.323 264.557 222.323Z" fill="white" stroke="#FE5244" stroke-width="1.01791" stroke-miterlimit="10"/>
<path d="M259.425 222.323C260.192 222.323 260.813 221.702 260.813 220.935C260.813 220.168 260.192 219.546 259.425 219.546C258.659 219.546 258.038 220.168 258.038 220.935C258.038 221.702 258.659 222.323 259.425 222.323Z" fill="#FE5244" stroke="#FE5244" stroke-width="1.01791" stroke-miterlimit="10"/>
<path d="M254.305 222.323C255.072 222.323 255.693 221.702 255.693 220.935C255.693 220.168 255.072 219.546 254.305 219.546C253.539 219.546 252.918 220.168 252.918 220.935C252.918 221.702 253.539 222.323 254.305 222.323Z" fill="white" stroke="#FE5244" stroke-width="1.01791" stroke-miterlimit="10"/>
<path d="M338.419 212.902H269.553L269.613 204.87H228.13L216.058 169.488L203.135 193.3L239.62 224.442L222.176 248.091L179.081 220.456C171.277 215.365 166.576 206.691 166.576 197.376C166.576 192.718 167.755 188.119 170.023 184.044L190.138 147.646C198.584 132.373 214.64 122.908 232.069 122.908H296.667C307.411 122.908 317.483 128.133 323.676 136.912L354.997 180.535C364.741 194.046 355.072 212.902 338.419 212.902Z" fill="white" stroke="#FE5244" stroke-width="1.22149" stroke-miterlimit="10"/>
<path d="M236.323 239.939C231.219 246.807 224.937 250.748 222.266 248.762C219.595 246.777 221.565 239.611 226.653 232.743C231.757 225.876 237.442 222.233 240.113 224.219C242.784 226.204 241.411 233.087 236.323 239.939Z" fill="#FE5244"/>
<path d="M237.636 122.967L258.303 151.617L277.373 122.967H237.636Z" stroke="#FE5244" stroke-width="1.22149" stroke-miterlimit="10"/>
<path d="M258.527 162.053C259.722 162.053 260.691 161.084 260.691 159.888C260.691 158.693 259.722 157.723 258.527 157.723C257.332 157.723 256.363 158.693 256.363 159.888C256.363 161.084 257.332 162.053 258.527 162.053Z" stroke="#FE5244" stroke-width="1.22149" stroke-miterlimit="10"/>
<path d="M258.527 175.788C259.722 175.788 260.691 174.819 260.691 173.623C260.691 172.428 259.722 171.458 258.527 171.458C257.332 171.458 256.363 172.428 256.363 173.623C256.363 174.819 257.332 175.788 258.527 175.788Z" stroke="#FE5244" stroke-width="1.22149" stroke-miterlimit="10"/>
<path d="M301.755 167.666L311.619 182.969H270.135V213.425" stroke="#FE5244" stroke-width="1.22149" stroke-miterlimit="10"/>
<path d="M311.62 182.969H322.498" stroke="#FE5244" stroke-width="1.22149" stroke-miterlimit="10"/>
<path d="M270.135 213.425C273.465 213.425 276.164 206.493 276.164 197.943C276.164 189.392 273.465 182.461 270.135 182.461C266.806 182.461 264.107 189.392 264.107 197.943C264.107 206.493 266.806 213.425 270.135 213.425Z" fill="#FE5244"/>
<path d="M276.104 183.014C279.432 183.014 282.133 189.702 282.133 197.943C282.133 206.184 279.432 212.872 276.104 212.872" stroke="#FE5244" stroke-width="1.22149" stroke-miterlimit="10"/>
<path d="M217.626 245.194C214.955 243.209 216.924 236.043 222.013 229.175C227.116 222.308 232.503 218.665 235.174 220.65" stroke="#FE5244" stroke-width="1.22149" stroke-miterlimit="10"/>
<path d="M237.788 110.591C237.892 95.8709 247.666 91.84 263.722 93.1239C281.032 94.5124 273.944 118.34 283.554 119.131C287.583 119.459 292.179 114.891 298.297 111.129C303.34 107.725 309.414 105.739 315.965 105.739C333.438 105.739 347.614 119.922 347.614 137.404C347.614 145.451 343.869 153.23 338.93 158.813C338.93 158.813 320.262 132.582 313.025 130.119C298.789 125.282 294.268 137.793 284.389 139.733C283.091 139.987 281.703 140.062 280.181 139.883C266.125 138.27 268.811 115.085 268.811 115.085C265.17 113.592 264.379 109.815 264.245 107.531C264.319 106.426 264.274 105.694 264.274 105.694C264.274 105.694 264.185 106.441 264.245 107.531C263.946 111.83 261.32 122.117 246.681 118.429V123.431C246.681 153.722 247.174 159.604 241.041 167.218C240.131 168.353 234.042 177.505 244.95 182.446C259.007 188.806 249.084 205.542 249.084 205.542H219.344C219.344 205.542 201.691 202.407 200.154 186.373C197.961 163.456 226.686 157.32 230.431 156.618C223.149 155.499 216.031 148.318 216.031 139.614C216.031 131.895 221.955 125.371 228.044 123.222C228.059 123.222 228.059 123.222 228.073 123.207C228.253 123.147 228.432 123.087 228.611 123.027C233.371 121.385 236.877 117.772 237.653 113.398L237.788 110.591Z" fill="#FFCF2D"/>
<path d="M264.317 110.755C264.302 110.755 264.302 110.755 264.317 110.755C264.108 110.755 263.944 110.576 263.944 110.382L264.063 102.753C264.063 102.544 264.227 102.38 264.436 102.38C264.645 102.38 264.81 102.559 264.81 102.753L264.69 110.382C264.675 110.591 264.511 110.755 264.317 110.755Z" fill="#A0505A"/>
<path d="M247.337 119.444C247.278 119.444 247.218 119.429 247.158 119.399C243.547 117.503 242.786 115.563 242.741 115.488C242.667 115.294 242.771 115.085 242.965 115.01C243.159 114.936 243.368 115.04 243.443 115.219C243.457 115.249 244.189 116.996 247.501 118.743C247.68 118.832 247.755 119.071 247.666 119.25C247.606 119.37 247.472 119.444 247.337 119.444Z" fill="#A0505A"/>
<path d="M297.461 106.471C299.933 106.471 301.937 104.465 301.937 101.992C301.937 99.5183 299.933 97.5131 297.461 97.5131C294.988 97.5131 292.984 99.5183 292.984 101.992C292.984 104.465 294.988 106.471 297.461 106.471Z" fill="#FFCF2D"/>
<path d="M244.772 177.296C246.758 177.296 248.368 175.685 248.368 173.698C248.368 171.711 246.758 170.1 244.772 170.1C242.786 170.1 241.176 171.711 241.176 173.698C241.176 175.685 242.786 177.296 244.772 177.296Z" fill="#FFCF2D"/>
<path d="M267.42 227.847L267.405 230.564C267.405 230.803 267.345 231.042 267.256 231.251L260.72 245.822C259.75 247.927 257.646 249.27 255.333 249.27H241.351C237.859 249.27 234.472 248.091 231.726 245.941L231.234 245.553L222.907 238.999C223.833 236.999 225.101 234.864 226.668 232.759C229.652 228.728 233.069 225.712 235.905 224.294H255.975C257.571 227.862 252.379 230.728 252.379 230.728H261.451L264.734 227.16C265.585 226.234 267.122 226.638 267.42 227.847Z" fill="#A0505A"/>
<path d="M262.258 241.388C261.288 243.493 259.184 244.836 256.871 244.836H245.097" stroke="#73325A" stroke-width="1.01791" stroke-miterlimit="10" stroke-linecap="round"/>
<path d="M264.317 236.774C263.347 238.88 261.243 240.223 258.931 240.223H247.157" stroke="#73325A" stroke-width="1.01791" stroke-miterlimit="10" stroke-linecap="round"/>
<path d="M266.539 231.639C265.569 233.744 263.465 235.087 261.152 235.087H249.378" stroke="#73325A" stroke-width="1.01791" stroke-miterlimit="10" stroke-linecap="round"/>
<path d="M236.174 239.641C234.846 241.806 232.891 244.06 231.234 245.553L231.22 245.538L222.893 238.984C223.818 236.984 225.087 234.849 226.653 232.744C229.638 228.713 233.055 225.697 235.89 224.279H240.203C240.591 227.668 240.024 233.371 236.174 239.641Z" fill="#73325A"/>
<path d="M250.486 193.584C250.486 193.584 257.738 174.221 260.544 174.609C263.334 174.982 254.291 192.151 254.291 192.151L250.486 193.584Z" fill="#FE5244"/>
<path d="M276.168 197.943C276.168 206.229 273.632 212.977 270.453 213.395C270.349 213.41 270.244 213.41 270.14 213.41H240.594C239.699 213.41 238.983 212.694 238.983 211.798V202.363C238.983 199.69 240.624 197.301 243.116 196.361L255.486 191.673C256.606 191.255 257.799 191.031 258.993 191.031H275.527C275.93 193.121 276.168 195.465 276.168 197.943Z" fill="#A0505A"/>
<path d="M251.965 198.451L242.624 201.989C240.744 202.706 239.505 204.512 239.505 206.513" stroke="#73325A" stroke-width="1.01791" stroke-miterlimit="10" stroke-linecap="round"/>
<path d="M251.965 204.094L242.624 207.632C240.744 208.349 239.505 210.155 239.505 212.156" stroke="#73325A" stroke-width="1.01791" stroke-miterlimit="10" stroke-linecap="round"/>
<path d="M251.456 209.365L242.115 212.903" stroke="#73325A" stroke-width="1.01791" stroke-miterlimit="10" stroke-linecap="round"/>
<path d="M276.168 197.944C276.168 206.229 273.631 212.977 270.453 213.395C270.349 213.41 270.244 213.41 270.14 213.41C266.812 213.41 264.111 206.483 264.111 197.929C264.111 195.644 264.454 193.047 264.812 191.016H275.452C275.825 193.062 276.168 195.659 276.168 197.944Z" fill="#73325A"/>
<path d="M273.688 118.414C273.688 119.28 273.39 120.101 272.897 120.743C272.39 121.4 271.689 121.878 270.838 122.102L268.779 122.639V124.938C268.779 130.492 264.287 134.986 258.736 134.986H256.752C251.215 134.986 246.739 130.507 246.709 124.983V118.414C261.348 122.117 263.974 111.816 264.272 107.516C264.392 109.696 265.123 113.219 268.346 114.846L268.913 114.697C271.33 114.1 273.688 115.921 273.688 118.414Z" fill="#A0505A"/>
<path d="M261.243 120.266C261.243 120.266 264.287 119.967 266.048 121.475" stroke="#73325A" stroke-width="1.01791" stroke-miterlimit="10" stroke-linecap="round"/>
<path d="M257.275 132.243C257.275 132.243 260.319 132.541 262.08 131.033" stroke="#73325A" stroke-width="1.01791" stroke-miterlimit="10" stroke-linecap="round"/>
<path d="M249.423 121.117C249.423 121.117 251.661 119.907 254.168 121.012C255.66 121.669 256.645 125.192 256.675 129.85" stroke="#73325A" stroke-width="1.01791" stroke-miterlimit="10" stroke-linecap="round"/>
<path d="M252.287 125.67C252.608 125.67 252.869 125.169 252.869 124.55C252.869 123.932 252.608 123.431 252.287 123.431C251.965 123.431 251.704 123.932 251.704 124.55C251.704 125.169 251.965 125.67 252.287 125.67Z" fill="#73325A"/>
<path d="M263.123 125.67C263.445 125.67 263.706 125.169 263.706 124.55C263.706 123.932 263.445 123.431 263.123 123.431C262.802 123.431 262.541 123.932 262.541 124.55C262.541 125.169 262.802 125.67 263.123 125.67Z" fill="#73325A"/>
<path d="M269.344 119.863C269.344 118.564 270.254 117.444 271.522 117.175" stroke="#73325A" stroke-width="1.01791" stroke-miterlimit="10" stroke-linecap="round"/>
<path d="M144.523 342.534C146.43 347.022 145.869 356.255 136.273 356.126C124.369 355.966 124.674 323.877 124.674 323.877C124.674 323.877 136.833 324.438 144.523 342.534Z" fill="#3FB1B5"/>
<path d="M33.6588 331.683C30.679 337.998 34.6841 343.079 38.0485 341.332C43.928 338.271 46.4593 330.401 46.4593 330.401C46.4593 330.401 36.3342 326.041 33.6588 331.683Z" fill="#3FB1B5"/>
<path d="M144.363 342.534C137.987 329.76 130.794 323.685 119.275 323.685C99.8737 323.685 87.4256 344.458 85.0546 371.321C84.7662 367.987 81.3217 364.573 81.0654 361.111C77.6049 315.11 102.805 296.965 121.71 296.965C137.186 296.949 141.047 319.197 144.363 342.534Z" fill="white" stroke="#3FB1B5" stroke-width="1.31142" stroke-miterlimit="10"/>
<path d="M81.0816 371.962C77.6211 325.961 103.991 307.817 121.406 307.817C131.066 307.817 137.122 313.523 141.784 326.506" stroke="#3FB1B5" stroke-width="1.31142" stroke-miterlimit="10"/>
<path d="M8.49184 277.555C3.31717 282.684 -6.0389 303.713 5.54404 307.881C17.127 312.064 30.6965 270.887 30.6965 270.887C30.6965 270.887 20.8758 265.261 8.49184 277.555Z" fill="#FFCF2D" stroke="#FFCF2D" stroke-width="1.31142" stroke-miterlimit="10"/>
<path d="M103.99 373.1L99.857 395.524C97.7743 406.776 87.9697 414.951 76.5309 414.951C65.0922 414.951 55.2875 406.776 53.2049 395.524L49.0715 373.1C49.0715 371.978 49.3279 370.904 49.7764 369.943C53.0927 373.277 63.8746 375.713 76.6431 375.713C89.2353 375.713 99.873 373.341 103.366 370.103C103.766 371.017 103.99 372.043 103.99 373.1Z" fill="#D0F0E4"/>
<path d="M101.282 367.779C101.282 370.953 90.2433 373.517 76.6258 373.517C63.0082 373.517 51.97 370.953 51.97 367.779C51.97 367.523 52.0341 367.282 52.1782 367.042C53.7483 364.221 64.0976 362.057 76.6258 362.057C89.5384 362.057 100.128 364.365 101.185 367.298C101.25 367.458 101.282 367.619 101.282 367.779Z" fill="#66B0F0"/>
<path d="M85.4721 334.328C85.4721 347.599 83.6457 360.133 80.3935 371.161H71.0375C71.0054 315.43 50.6912 270.278 25.6509 270.278C19.1465 270.278 12.9625 273.323 7.37134 278.805C23.8406 259.523 30.6814 254.233 40.0855 254.233C62.5465 254.233 85.4721 290.089 85.4721 334.328Z" fill="white" stroke="#FFCF2D" stroke-width="1.31142" stroke-miterlimit="10"/>
<path d="M17.8472 267.056C23.1981 263.161 26.6425 261.35 32.7784 261.35C57.8347 261.35 83.1954 303.184 76.5148 371.145" stroke="#FFCF2D" stroke-width="1.31142" stroke-miterlimit="10"/>
<path d="M76.5795 371.145C76.5795 371.145 77.9573 318.812 49.4566 318.636C41.9108 318.588 34.8457 330.561 34.8457 330.561C34.8457 330.561 68.2167 321.841 69.8669 371.145H76.5795Z" fill="white" stroke="#3FB1B5" stroke-width="1.31142" stroke-miterlimit="10"/>
<path d="M73.086 371.306C73.4865 356.559 69.7697 320.976 40.9646 322.884" stroke="#3FB1B5" stroke-width="1.31142" stroke-miterlimit="10"/>
<path d="M34.7167 280.921C36.1766 280.921 37.3601 279.737 37.3601 278.276C37.3601 276.816 36.1766 275.631 34.7167 275.631C33.2567 275.631 32.0732 276.816 32.0732 278.276C32.0732 279.737 33.2567 280.921 34.7167 280.921Z" fill="white" stroke="#FFCF2D" stroke-width="1.31142" stroke-miterlimit="10"/>
<path d="M97.0202 356.559C99.1525 356.559 100.881 354.83 100.881 352.696C100.881 350.563 99.1525 348.834 97.0202 348.834C94.8878 348.834 93.1592 350.563 93.1592 352.696C93.1592 354.83 94.8878 356.559 97.0202 356.559Z" fill="white" stroke="#FFCF2D" stroke-width="1.31142" stroke-miterlimit="10"/>
<path d="M90.6139 282.043C94.6397 282.043 97.9033 278.778 97.9033 274.75C97.9033 270.722 94.6397 267.457 90.6139 267.457C86.588 267.457 83.3245 270.722 83.3245 274.75C83.3245 278.778 86.588 282.043 90.6139 282.043Z" fill="#D0F0E4"/>
<path d="M109.758 440.355L103.302 408.186C102.757 405.445 99.1041 404.804 97.6623 407.209C88.7548 422.035 64.5636 422.131 55.5119 407.353L55.3517 407.08C53.8938 404.708 50.2732 405.349 49.7285 408.074L43.2561 440.339" stroke="#66B0F0" stroke-width="1.31142" stroke-miterlimit="10"/>
<path d="M76.5144 418.397V440.5" stroke="#66B0F0" stroke-width="1.31142" stroke-miterlimit="10"/>
<path d="M28.5979 440.356H243.339" stroke="#66B0F0" stroke-width="1.31142" stroke-miterlimit="10"/>
</g>
<defs>
<clipPath id="clip0_9553_43611">
<rect width="395" height="440" fill="white" transform="translate(0 0.5)"/>
</clipPath>
</defs>
</svg>
